<?xml version="1.0" standalone="no"?>
<!DOCTYPE svg PUBLIC "-//W3C//DTD SVG 20010904//EN"
 "http://www.w3.org/TR/2001/REC-SVG-20010904/DTD/svg10.dtd">
<svg version="1.0" xmlns="http://www.w3.org/2000/svg"
 width="563.000000pt" height="563.000000pt" viewBox="0 0 563.000000 563.000000"
 preserveAspectRatio="xMidYMid meet">
<metadata>
Created by potrace 1.14, written by Peter Selinger 2001-2017
</metadata>
<g transform="translate(0.000000,563.000000) scale(0.100000,-0.100000)"
fill="#000000" stroke="none">
<path d="M2776 5022 c-2 -1 -13 -5 -25 -7 -13 -2 -32 -7 -44 -11 -12 -4 -33
-8 -47 -10 -29 -4 -65 -12 -65 -15 0 -1 -9 -3 -20 -5 -26 -4 -60 -12 -60 -14
0 -2 -26 -8 -65 -16 -19 -3 -43 -10 -52 -15 -10 -5 -18 -8 -18 -5 0 2 -34 -6
-75 -19 -41 -12 -75 -21 -75 -18 0 3 -6 0 -14 -6 -8 -6 -18 -11 -22 -10 -5 1
-16 0 -24 -3 -8 -3 -58 -20 -110 -38 -52 -17 -108 -38 -125 -45 -31 -13 -59
-23 -73 -26 -4 -1 -27 -12 -52 -26 -25 -14 -47 -25 -50 -25 -3 0 -45 -19 -95
-43 -49 -23 -119 -57 -155 -73 -60 -28 -108 -55 -135 -75 -5 -4 -53 -35 -105
-69 -52 -34 -97 -64 -100 -67 -3 -4 -23 -19 -45 -36 -128 -94 -407 -367 -501
-490 -62 -82 -124 -172 -124 -181 0 -3 -16 -30 -35 -60 -59 -92 -163 -302
-166 -334 0 -3 -6 -14 -13 -25 -7 -11 -16 -32 -19 -47 -4 -15 -12 -40 -18 -55
-6 -15 -11 -30 -11 -33 0 -3 -4 -13 -10 -23 -5 -10 -11 -27 -14 -38 -2 -10 -6
-29 -10 -41 -3 -13 -7 -32 -9 -43 -17 -75 -23 -100 -25 -100 -1 0 -3 -9 -5
-20 -2 -11 -6 -31 -9 -45 -30 -124 -37 -192 -36 -375 0 -139 6 -360 10 -360 1
0 3 -16 5 -35 1 -19 5 -48 9 -65 3 -16 8 -40 10 -52 3 -12 10 -31 16 -42 6
-12 8 -21 4 -21 -3 0 -1 -6 5 -13 6 -8 13 -27 15 -43 2 -16 8 -40 14 -54 5
-14 18 -45 28 -70 9 -25 20 -49 25 -55 4 -5 33 -62 65 -125 84 -167 101 -190
279 -378 99 -104 259 -227 384 -295 31 -16 64 -37 74 -45 9 -8 17 -11 17 -6 0
5 4 4 8 -1 6 -9 55 -36 72 -40 3 0 25 -12 50 -25 25 -13 50 -25 55 -27 6 -1
46 -15 90 -31 44 -15 83 -29 88 -30 4 -1 8 -2 10 -3 5 -1 33 -8 57 -12 14 -3
27 -6 30 -7 3 -2 9 -2 13 -1 4 1 16 -3 26 -8 16 -9 51 -15 141 -26 19 -3 47
-7 62 -10 30 -7 75 -14 133 -21 58 -7 698 -12 710 -5 6 3 26 7 45 8 117 8 170
12 205 18 22 3 56 7 75 9 19 2 35 5 35 6 0 2 23 4 50 6 28 1 64 5 80 8 17 3
46 7 65 10 75 12 88 15 270 71 3 1 13 5 23 8 39 15 53 20 65 24 6 1 18 5 25 6
6 2 26 10 42 16 17 7 73 28 125 47 52 19 109 41 127 49 17 8 34 15 39 15 4 0
97 45 208 101 304 152 476 275 711 506 138 136 226 241 347 413 49 69 134 228
163 304 10 25 22 46 26 46 5 0 9 7 9 15 0 8 4 23 9 33 20 37 69 167 77 205 1
4 2 8 4 10 3 4 10 40 15 77 3 19 8 51 11 70 24 127 34 366 21 490 -3 30 -6 55
-7 55 -1 0 -3 14 -6 30 -6 48 -13 90 -14 90 -1 0 -3 7 -5 15 -2 8 -6 26 -9 40
-2 14 -17 57 -31 95 -14 39 -28 79 -30 89 -7 29 -27 90 -34 101 -3 6 -6 12 -7
15 0 3 -7 19 -14 35 -7 17 -14 35 -14 40 -1 10 -105 220 -129 260 -77 129
-319 395 -448 491 -114 85 -257 184 -266 184 -6 0 -21 10 -35 23 -14 12 -32
23 -39 25 -8 2 -20 9 -27 15 -8 6 -20 12 -28 13 -7 1 -28 13 -46 26 -18 12
-34 22 -36 20 -1 -1 -23 6 -48 18 -26 11 -52 20 -58 20 -6 0 -20 6 -31 14 -11
7 -23 14 -27 15 -4 1 -13 3 -20 5 -7 3 -38 12 -68 21 -30 9 -62 19 -70 22 -8
3 -19 7 -25 8 -5 1 -12 3 -15 4 -4 2 -17 5 -65 15 -5 1 -16 5 -22 9 -7 5 -13
6 -13 3 0 -3 -12 -1 -27 5 -16 6 -37 13 -48 15 -17 3 -50 11 -87 20 -5 1 -9 2
-10 4 -2 1 -10 3 -18 5 -120 26 -159 32 -250 40 -36 4 -87 8 -115 11 -54 6
-475 11 -479 6z"/>
</g>
</svg>
